<?xml version="1.0" encoding="utf-8"?>
<!-- Generator: Adobe Illustrator 16.0.0, SVG Export Plug-In . SVG Version: 6.00 Build 0)  -->
<!DOCTYPE svg PUBLIC "-//W3C//DTD SVG 1.1//EN" "http://www.w3.org/Graphics/SVG/1.1/DTD/svg11.dtd">
<svg version="1.1" id="Layer_3" xmlns:svg="http://www.w3.org/2000/svg"
	 xmlns="http://www.w3.org/2000/svg" xmlns:xlink="http://www.w3.org/1999/xlink" x="0px" y="0px" width="704.502px"
	 height="445.711px" viewBox="0 0 704.502 445.711" enable-background="new 0 0 704.502 445.711" xml:space="preserve">
<g id="path3">
	<path fill="#FFFFFF" d="M105.686,438.211c0,0-40.093-1.137-69.427-28.525C6.924,382.297,7.501,340.82,7.501,340.82V104.891
		c0,0,1.145-39.769,28.758-68.866C63.871,6.928,105.685,7.501,105.685,7.501h493.129c0,0,41.814-0.573,69.429,28.523
		c27.612,29.099,28.76,68.866,28.76,68.866V340.82c0,0,0.575,41.479-28.76,68.866c-29.335,27.391-69.429,28.525-69.429,28.525
		H105.686L105.686,438.211z"/>
	<path fill="#F8F8F8" d="M598.921,445.711l-493.447-0.005c-1.753-0.05-43.285-1.549-74.334-30.539
		C0.027,386.118-0.025,343.336,0.001,340.776l0.003-236.101c0.05-1.741,1.563-42.99,30.813-73.813C59.283,0.866,100.861,0,105.508,0
		l0.177,0.001L598.99,0c4.647,0,46.227,0.866,74.692,30.861c29.25,30.823,30.764,72.072,30.813,73.813l0.003,0.216v235.884
		c0.025,2.563-0.024,45.344-31.141,74.395c-31.05,28.989-72.582,30.488-74.335,30.54L598.921,445.711z M105.817,430.711h492.854
		c1.989-0.09,38.257-2.05,64.452-26.508c26.601-24.836,26.383-62.897,26.378-63.279l-0.001-0.104V105.031
		c-0.084-1.889-2.04-37.858-26.698-63.844C638.232,15.298,600.58,15,598.99,15l-0.177,0.001H105.581l0,0
		c-1.673,0-39.317,0.3-63.882,26.187c-24.618,25.942-26.607,61.838-26.698,63.849v235.89c-0.004,0.368-0.075,38.583,26.376,63.278
		C67.719,428.8,103.851,430.631,105.817,430.711z"/>
	<path fill="#909090" d="M590.779,438.355l-477.158-0.002c-1.695-0.049-41.856-1.498-71.882-29.533
		c-30.086-28.09-30.137-69.46-30.109-71.937l0.003-228.308c0.048-1.685,1.512-41.571,29.797-71.376
		c27.525-29.008,67.73-29.846,72.224-29.846l0.172,0.001l477.022-0.001c4.494,0,44.699,0.837,72.228,29.847
		c28.284,29.805,29.748,69.691,29.797,71.376l0.003,0.208v228.098c0.025,2.477-0.022,43.847-30.109,71.938
		c-30.025,28.034-70.188,29.483-71.882,29.532L590.779,438.355z M113.952,423.85h476.584c1.928-0.085,36.994-1.979,62.326-25.632
		c25.722-24.017,25.511-60.822,25.506-61.191l-0.001-0.101V108.921c-0.081-1.827-1.973-36.61-25.815-61.736
		c-23.759-25.036-60.167-25.324-61.705-25.324l-0.171,0.001H113.724l0,0c-1.618,0-38.019,0.291-61.771,25.323
		c-23.808,25.085-25.729,59.797-25.817,61.74v228.103c-0.004,0.356-0.072,37.312,25.506,61.19
		C77.11,422.002,112.05,423.773,113.952,423.85z"/>
	<path fill="#909090" d="M583.031,431.355l-461.659-0.002c-1.641-0.047-40.497-1.449-69.546-28.574
		c-29.109-27.177-29.158-67.203-29.133-69.6l0.003-220.892c0.047-1.629,1.463-40.222,28.829-69.058
		c26.631-28.064,65.531-28.875,69.878-28.875l0.165,0.001l461.529-0.001c4.348,0,43.247,0.811,69.881,28.876
		c27.366,28.836,28.782,67.429,28.829,69.058l0.003,0.2v220.688c0.023,2.396-0.022,42.423-29.132,69.601
		c-29.052,27.124-67.908,28.526-69.547,28.573L583.031,431.355z M121.693,417.321h461.104c1.863-0.082,35.793-1.915,60.302-24.799
		c24.886-23.235,24.682-58.847,24.678-59.204l-0.001-0.097V112.622c-0.079-1.769-1.909-35.421-24.979-59.731
		c-22.986-24.223-58.212-24.501-59.7-24.501l-0.166,0.001H121.472l0,0c-1.564,0-36.784,0.282-59.766,24.5
		c-23.033,24.271-24.895,57.854-24.979,59.735v220.692c-0.004,0.346-0.069,36.1,24.677,59.203
		C86.047,415.532,119.852,417.245,121.693,417.321z"/>
</g>
</svg>
