<?xml version="1.0" encoding="utf-8"?>
<!-- Generator: Adobe Illustrator 16.0.0, SVG Export Plug-In . SVG Version: 6.00 Build 0)  -->
<!DOCTYPE svg PUBLIC "-//W3C//DTD SVG 1.1//EN" "http://www.w3.org/Graphics/SVG/1.1/DTD/svg11.dtd">
<svg version="1.1" id="Layer_1" xmlns="http://www.w3.org/2000/svg" xmlns:xlink="http://www.w3.org/1999/xlink" x="0px" y="0px"
	 width="59.496px" height="25.365px" viewBox="0 0 59.496 25.365" style="enable-background:new 0 0 59.496 25.365;"
	 xml:space="preserve">
<g>
	<path style="fill:#BDBDBD;" d="M6.215,23.892c-1.861,0-3.375-1.514-3.375-3.375V4.849c0-1.861,1.514-3.375,3.375-3.375h47.066
		c1.861,0,3.375,1.514,3.375,3.375v15.668c0,1.861-1.514,3.375-3.375,3.375H6.215z"/>
	<path style="fill:#FDFDFD;" d="M53.281,1.849c1.657,0,3,1.343,3,3v15.668c0,1.657-1.343,3-3,3H6.215c-1.657,0-3-1.343-3-3V4.849
		c0-1.657,1.343-3,3-3H53.281 M53.281,1.099H6.215c-2.068,0-3.75,1.682-3.75,3.75v15.668c0,2.067,1.682,3.75,3.75,3.75h47.066
		c2.067,0,3.75-1.683,3.75-3.75V4.849C57.031,2.781,55.349,1.099,53.281,1.099L53.281,1.099z"/>
	<path style="fill:#EAEAEA;" d="M53.281,1.849c1.657,0,3,1.343,3,3v15.668c0,1.657-1.343,3-3,3H6.215c-1.657,0-3-1.343-3-3V4.849
		c0-1.657,1.343-3,3-3H53.281 M53.281,1.648H6.215c-1.765,0-3.2,1.436-3.2,3.2v15.668c0,1.765,1.436,3.2,3.2,3.2h47.066
		c1.765,0,3.2-1.436,3.2-3.2V4.849C56.481,3.084,55.046,1.648,53.281,1.648L53.281,1.648z"/>
</g>
</svg>
