<?xml version="1.0" encoding="utf-8"?>
<!-- Generator: Adobe Illustrator 16.0.0, SVG Export Plug-In . SVG Version: 6.00 Build 0)  -->
<!DOCTYPE svg PUBLIC "-//W3C//DTD SVG 1.1//EN" "http://www.w3.org/Graphics/SVG/1.1/DTD/svg11.dtd">
<svg version="1.1" id="Layer_1" xmlns="http://www.w3.org/2000/svg" xmlns:xlink="http://www.w3.org/1999/xlink" x="0px" y="0px"
	 width="25.219px" height="25.365px" viewBox="0 0 25.219 25.365" enable-background="new 0 0 25.219 25.365" xml:space="preserve">
<g>
	<path fill="#909090" d="M3.109,23.558c-1.31,0-2.375-1.065-2.375-2.375v-17c0-1.31,1.065-2.375,2.375-2.375h19
		c1.31,0,2.375,1.065,2.375,2.375v17c0,1.31-1.065,2.375-2.375,2.375H3.109z"/>
	<path fill="#FDFDFD" d="M22.109,2.183c1.104,0,2,0.896,2,2v17c0,1.104-0.896,2-2,2h-19c-1.104,0-2-0.896-2-2v-17
		c0-1.104,0.896-2,2-2H22.109 M22.109,1.433h-19c-1.517,0-2.75,1.233-2.75,2.75v17c0,1.517,1.233,2.75,2.75,2.75h19
		c1.517,0,2.75-1.233,2.75-2.75v-17C24.859,2.666,23.626,1.433,22.109,1.433L22.109,1.433z"/>
	<path fill="#DDDDDD" d="M22.109,2.183c1.104,0,2,0.896,2,2v17c0,1.104-0.896,2-2,2h-19c-1.104,0-2-0.896-2-2v-17
		c0-1.104,0.896-2,2-2H22.109 M22.109,1.933h-19c-1.241,0-2.25,1.009-2.25,2.25v17c0,1.24,1.009,2.25,2.25,2.25h19
		c1.24,0,2.25-1.01,2.25-2.25v-17C24.359,2.942,23.35,1.933,22.109,1.933L22.109,1.933z"/>
</g>
</svg>
