<?xml version="1.0" encoding="utf-8"?>
<!-- Generator: Adobe Illustrator 16.0.0, SVG Export Plug-In . SVG Version: 6.00 Build 0)  -->
<!DOCTYPE svg PUBLIC "-//W3C//DTD SVG 1.1//EN" "http://www.w3.org/Graphics/SVG/1.1/DTD/svg11.dtd">
<svg version="1.1" id="Layer_1" xmlns="http://www.w3.org/2000/svg" xmlns:xlink="http://www.w3.org/1999/xlink" x="0px" y="0px"
	 width="23.031px" height="12.008px" viewBox="0 0 23.031 12.008" enable-background="new 0 0 23.031 12.008" xml:space="preserve">
<g>
	<g>
		<circle fill="#FFFFFF" cx="11.607" cy="6.004" r="2.675"/>
		<path fill="#FFFFFF" d="M11.607,3.522c1.372,0,2.482,1.11,2.482,2.483c0,1.369-1.111,2.479-2.482,2.479
			c-1.373,0-2.482-1.11-2.482-2.479C9.125,4.633,10.236,3.522,11.607,3.522 M11.607,3.133c-1.582,0-2.871,1.289-2.871,2.873
			c0,1.582,1.289,2.869,2.871,2.869c1.583,0,2.872-1.287,2.872-2.869C14.479,4.422,13.192,3.133,11.607,3.133L11.607,3.133z"/>
	</g>
	<g>
		<path fill="#B2B2B2" d="M11.607,9.18c-1.495,0-2.771-1.034-3.092-2.482H7.87V5.318h0.646c0.32-1.452,1.596-2.49,3.093-2.49
			s2.774,1.038,3.096,2.49h0.654v1.378h-0.656C14.38,8.146,13.104,9.18,11.607,9.18z M9.967,6.697
			c0.275,0.656,0.918,1.096,1.642,1.096s1.367-0.439,1.643-1.096H9.967z M13.254,5.318c-0.275-0.66-0.92-1.103-1.646-1.103
			c-0.726,0-1.37,0.442-1.646,1.103H13.254z"/>
		<path fill="#FFFFFF" d="M11.607,3.022c1.477,0,2.698,1.08,2.936,2.49h0.621v0.99H14.54c-0.236,1.405-1.458,2.481-2.933,2.481
			S8.913,7.906,8.676,6.502H8.063V5.513h0.612C8.911,4.102,10.132,3.022,11.607,3.022 M9.694,5.513h3.829
			c-0.221-0.854-0.992-1.49-1.916-1.49C10.686,4.022,9.915,4.657,9.694,5.513 M11.607,7.986c0.922,0,1.69-0.632,1.913-1.483H9.695
			C9.918,7.354,10.688,7.986,11.607,7.986 M11.607,2.634c-1.535,0-2.853,1.029-3.246,2.49h-0.3H7.676v0.389v0.99v0.388h0.389h0.301
			c0.394,1.458,1.71,2.483,3.243,2.483c1.535,0,2.853-1.025,3.246-2.483h0.311h0.388V6.502V5.513V5.124h-0.388h-0.309
			C14.463,3.663,13.146,2.634,11.607,2.634L11.607,2.634z M10.285,5.124c0.289-0.438,0.781-0.714,1.323-0.714
			c0.544,0,1.036,0.276,1.324,0.714H10.285L10.285,5.124z M10.29,6.891h2.637C12.637,7.323,12.147,7.6,11.607,7.6
			C11.069,7.599,10.579,7.323,10.29,6.891L10.29,6.891z"/>
	</g>
</g>
<circle fill="#ADADAD" stroke="#717171" stroke-width="0.22" cx="4.421" cy="6.004" r="2.55"/>
</svg>
