<?xml version="1.0" encoding="utf-8"?>
<!-- Generator: Adobe Illustrator 16.0.0, SVG Export Plug-In . SVG Version: 6.00 Build 0)  -->
<!DOCTYPE svg PUBLIC "-//W3C//DTD SVG 1.1//EN" "http://www.w3.org/Graphics/SVG/1.1/DTD/svg11.dtd">
<svg version="1.1" id="Layer_3" xmlns:svg="http://www.w3.org/2000/svg"
	 xmlns="http://www.w3.org/2000/svg" xmlns:xlink="http://www.w3.org/1999/xlink" x="0px" y="0px" width="704.502px"
	 height="445.711px" viewBox="0 0 704.502 445.711" enable-background="new 0 0 704.502 445.711" xml:space="preserve">
<g>
	<path fill="#BDBDBD" d="M100,438.211c-51.005,0-92.5-41.495-92.5-92.5V100C7.5,48.996,48.995,7.5,100,7.5h504.502
		c51.005,0,92.5,41.495,92.5,92.5v245.711c0,51.005-41.495,92.5-92.5,92.5H100z"/>
	<path fill="#F8F8F8" d="M604.502,15c22.594,0,43.908,8.872,60.019,24.98c16.109,16.11,24.981,37.425,24.981,60.02v245.711
		c0,22.594-8.872,43.908-24.981,60.019s-37.425,24.981-60.019,24.981H100c-22.595,0-43.909-8.872-60.02-24.981
		C23.872,389.62,15,368.305,15,345.711V100c0-22.595,8.872-43.909,24.98-60.02C56.091,23.873,77.406,15,100,15H604.502 M604.502,0
		H100C45,0,0,45,0,100v245.711c0,55,45,100,100,100h504.502c55,0,100-45,100-100V100C704.502,45,659.502,0,604.502,0L604.502,0z"/>
	<path fill="#F8F8F8" d="M596.176,21.861c21.848,0,42.46,8.579,58.037,24.157c15.578,15.578,24.156,36.189,24.156,58.038v237.601
		c0,21.849-8.578,42.459-24.156,58.037c-15.577,15.577-36.189,24.157-58.037,24.157h-487.85c-21.849,0-42.459-8.58-58.038-24.157
		c-15.578-15.578-24.157-36.188-24.157-58.037V104.056c0-21.848,8.579-42.459,24.157-58.038
		c15.578-15.578,36.188-24.157,58.038-24.157H596.176 M596.176,7.356h-487.85c-53.186,0-96.699,43.516-96.699,96.699v237.601
		c0,53.186,43.515,96.699,96.699,96.699h487.85c53.185,0,96.699-43.515,96.699-96.699v-237.6
		C692.875,50.871,649.36,7.356,596.176,7.356L596.176,7.356z"/>
</g>
</svg>
